<svg width="180" height="180" xmlns="http://www.w3.org/2000/svg">
 <!-- Created with Method Draw - http://github.com/duopixel/Method-Draw/ -->
 <g>
  <title>background</title>
  <rect fill="none" id="canvas_background" height="255" width="255" y="-1" x="-1"/>
  <g display="none" overflow="visible" y="0" x="0" height="100%" width="100%" id="canvasGrid">
   <rect fill="url(#gridpattern)" stroke-width="0" y="0" x="0" height="100%" width="100%"/>
  </g>
 </g>
 <g>
  <title>Layer 1</title>
  <path transform="rotate(88 90.00000762939453,89.99999237060547) " stroke-dasharray="5,5" id="svg_1" d="m90,22.222275c-37.520697,0 -67.936441,30.344681 -67.936441,67.777714c0,37.433034 30.415744,67.777714 67.936441,67.777714c37.520697,0 67.936441,-30.344681 67.936441,-67.777714c0,-37.433034 -30.415744,-67.777714 -67.936441,-67.777714zm39.198775,62.965096c-6.782426,7.783198 -17.322998,10.35739 -26.57346,7.396137l-33.59895,38.547584c-3.580522,4.103783 -9.811379,4.523489 -13.924773,0.955995s-4.548105,-9.788456 -0.972257,-13.89224l33.645693,-38.589555c-4.17416,-8.697223 -3.071023,-19.418357 3.678683,-27.159585c6.389784,-7.34484 16.140397,-10.030952 24.998217,-7.806515l-12.873053,14.97881l4.211555,12.222746l12.723475,2.466933l12.905774,-15.016117c3.496385,8.45939 2.210949,18.522986 -4.220903,25.895806z" stroke-width="1.5" stroke="#ffaaaa" fill="#ffffff"/>
  <path id="svg_2" d="m-57.006815,42.951298c-0.087665,0 -0.15873,0.032535 -0.15873,0.07267c0,0.040135 0.071065,0.07267 0.15873,0.07267c0.087665,0 0.15873,-0.032535 0.15873,-0.07267c0,-0.040135 -0.071065,-0.07267 -0.15873,-0.07267zm0.091586,0.06751c-0.015847,0.008345 -0.040474,0.011105 -0.062088,0.00793l-0.078502,0.04133c-0.008366,0.0044 -0.022924,0.00485 -0.032535,0.001025s-0.010626,-0.010495 -0.002272,-0.014895l0.078611,-0.041375c-0.009753,-0.009325 -0.007175,-0.02082 0.008595,-0.02912c0.014929,-0.007875 0.037711,-0.010755 0.058407,-0.00837l-0.030077,0.01606l0.00984,0.013105l0.029728,0.002645l0.030154,-0.0161c0.008169,0.00907 0.005166,0.01986 -0.009862,0.027765z" stroke-width="1.5" stroke="#ffaaaa" fill="#ffffff"/>
  <text xml:space="preserve" text-anchor="start" font-family="Junction, sans-serif" font-size="24" id="svg_3" y="64.441762" x="42.323321" stroke-width="0" stroke="#000000" fill="#ffaaaa">C Power</text>
 </g>
</svg>
